<svg xmlns="http://www.w3.org/2000/svg" width="96" height="96" viewBox="0 0 96 96" fill="none">
  <defs>
    <linearGradient id="g" x1="8" y1="8" x2="88" y2="88" gradientUnits="userSpaceOnUse">
      <stop offset="0" stop-color="#60A5FA"/>
      <stop offset="1" stop-color="#8B5CF6"/>
    </linearGradient>
  </defs>
  <rect x="8" y="8" width="80" height="80" rx="20" fill="#0F172A"/>
  <rect x="10" y="10" width="76" height="76" rx="18" stroke="url(#g)" stroke-width="4"/>
  <path d="M28 66V30H46C55 30 61 35 61 43C61 51 55 56 46 56H37V66H28ZM37 48H45C49 48 52 46 52 43C52 40 49 38 45 38H37V48Z" fill="url(#g)"/>
  <path d="M63 66L71 30H80L88 66H79L77.7 59H72.3L71 66H63ZM73.7 52H76.3L75 44L73.7 52Z" fill="#E2E8F0"/>
</svg>
